<svg xmlns="http://www.w3.org/2000/svg" width="138.46" height="138.46" viewBox="0 0 138.46 138.46" xml:space="preserve"><path fill="#01579B" d="M31.65 109.5 8.38 86.23C5.62 83.4 3.91 79.4 3.91 75.49c0-1.81 1.02-4.64 1.79-6.26l21.48-44.74 4.47 85.01z"/><path fill="#40C4FF" d="M111.3 28.96 88.03 5.69C86 3.65 81.77 1.22 78.19 1.22c-3.08 0-6.1.62-8.05 1.79L27.19 24.49l84.11 4.47zM59.39 137.24h56.38v-24.16L73.71 99.65l-38.48 13.43z"/><path fill="#29B6F6" d="M27.18 96.97c0 7.18.9 8.94 4.47 12.53l3.58 3.58h80.54L76.4 68.34 27.18 24.49v72.48z"/><path fill="#01579B" d="M98.77 24.48H27.18l88.59 88.59h24.16V57.59l-28.64-28.64c-4.02-4.03-7.59-4.47-12.52-4.47z"/><path opacity=".2" fill="#FFF" d="M32.55 110.39c-3.58-3.59-4.47-7.13-4.47-13.42V25.38l-.89-.89v72.48c-.01 6.29-.01 8.03 5.36 13.42l2.68 2.68-2.68-2.68z"/><path opacity=".2" fill="#263238" d="M139.04 56.7v55.48h-24.16l.89.9h24.16V57.59z"/><path opacity=".2" fill="#FFF" d="M111.3 28.96c-4.44-4.44-8.07-4.47-13.42-4.47H27.19l.89.89h69.8c2.67 0 9.41-.45 13.42 3.58z"/><radialGradient id="a" cx="71.915" cy="62.217" r="68" gradientTransform="matrix(1 0 0 -1 0 131.444)" gradientUnits="userSpaceOnUse"><stop offset="0" style="stop-color:#fff;stop-opacity:.1"/><stop offset="1" style="stop-color:#fff;stop-opacity:0"/></radialGradient><path opacity=".2" fill="url(#a)" d="M139.04 56.7 111.3 28.96 88.03 5.69C86 3.65 81.77 1.22 78.19 1.22c-3.08 0-6.1.62-8.05 1.79L27.19 24.49 5.71 69.23c-.77 1.63-1.79 4.46-1.79 6.26 0 3.91 1.72 7.9 4.47 10.74l21.44 21.29c.51.63 1.11 1.27 1.82 1.98l.89.89 2.68 2.68 23.27 23.27.89.89h56.37v-24.16h24.16V57.59l-.87-.89z"/></svg>