<svg width="101" height="73" viewBox="0 0 101 73" fill="none" xmlns="http://www.w3.org/2000/svg"><path d="M99.566 27.694c-.271-.215-2.803-2.127-8.142-2.127-1.41.006-2.817.127-4.207.362-1.034-7.083-6.89-10.537-7.153-10.691l-1.433-.827-.943 1.36a19.22 19.22 0 0 0-2.55 5.96c-.955 4.043-.374 7.84 1.68 11.087-2.48 1.383-6.459 1.723-7.264 1.753H3.683a3.13 3.13 0 0 0-3.127 3.113A47.4 47.4 0 0 0 3.441 54.61c2.27 5.951 5.645 10.335 10.037 13.017 4.922 3.014 12.918 4.737 21.982 4.737a65.625 65.625 0 0 0 12.207-1.107A51.036 51.036 0 0 0 63.6 65.47a43.8 43.8 0 0 0 10.872-8.9c5.22-5.908 8.328-12.488 10.64-18.335h.922c5.714 0 9.227-2.286 11.165-4.202a12.183 12.183 0 0 0 2.945-4.362l.409-1.197-.986-.78z" fill="#2496ED"/><path d="M9.788 32.642h8.827a.77.77 0 0 0 .771-.77v-7.863a.77.77 0 0 0-.766-.776H9.788a.77.77 0 0 0-.77.771v7.867c0 .426.344.77.77.77zm12.164 0h8.827a.77.77 0 0 0 .771-.77v-7.863a.77.77 0 0 0-.766-.776h-8.832a.775.775 0 0 0-.775.776v7.862c.003.427.349.77.775.77zm12.35 0h8.827a.77.77 0 0 0 .77-.77v-7.863a.77.77 0 0 0-.766-.776H34.3a.77.77 0 0 0-.77.771v7.867c0 .426.345.77.77.77zm12.203 0h8.827a.775.775 0 0 0 .775-.77v-7.863a.775.775 0 0 0-.775-.776h-8.828a.77.77 0 0 0-.77.771v7.867c0 .426.345.77.77.77zM21.952 21.33h8.827a.775.775 0 0 0 .771-.775v-7.862a.77.77 0 0 0-.77-.77h-8.828a.775.775 0 0 0-.775.77v7.862a.78.78 0 0 0 .775.775zm12.35 0h8.827a.775.775 0 0 0 .77-.775v-7.862a.77.77 0 0 0-.77-.77h-8.827a.77.77 0 0 0-.771.77v7.862c0 .427.344.773.77.775zm12.203 0h8.827a.78.78 0 0 0 .775-.775v-7.862a.775.775 0 0 0-.775-.77h-8.828a.77.77 0 0 0-.77.77v7.862c0 .427.344.773.77.775zm0-11.315h8.827a.775.775 0 0 0 .775-.771V1.377a.775.775 0 0 0-.775-.77h-8.828a.77.77 0 0 0-.77.77v7.867c0 .425.345.77.77.77zm12.31 22.627h8.827a.775.775 0 0 0 .775-.77v-7.863a.775.775 0 0 0-.775-.776h-8.827a.77.77 0 0 0-.77.771v7.867c0 .426.344.77.77.77z" fill="#2496ED"/></svg>