<svg width="100" height="100" viewBox="0 0 100 100" fill="none" xmlns="http://www.w3.org/2000/svg"><path d="M34.162 100c9.2 0 16.666-7.467 16.666-16.667V66.667H34.162c-9.2 0-16.667 7.466-16.667 16.666S24.962 100 34.162 100z" fill="#0ACF83"/><path d="M17.495 50c0-9.2 7.467-16.667 16.667-16.667h16.666v33.334H34.162c-9.2 0-16.667-7.467-16.667-16.667z" fill="#A259FF"/><path d="M17.495 16.667C17.495 7.467 24.962 0 34.162 0h16.666v33.333H34.162c-9.2 0-16.667-7.466-16.667-16.666z" fill="#F24E1E"/><path d="M50.828 0h16.667c9.2 0 16.667 7.467 16.667 16.667 0 9.2-7.467 16.666-16.667 16.666H50.828V0z" fill="#FF7262"/><path d="M84.162 50c0 9.2-7.467 16.666-16.667 16.666-9.2 0-16.667-7.466-16.667-16.666s7.467-16.667 16.667-16.667c9.2 0 16.667 7.467 16.667 16.667z" fill="#1ABCFE"/></svg>