<svg width="101" height="101" viewBox="0 0 101 101" fill="none" xmlns="http://www.w3.org/2000/svg"><path d="M98.666 45.733 55.006 2.074a6.44 6.44 0 0 0-9.108 0l-9.066 9.067 11.501 11.5a7.645 7.645 0 0 1 7.868 1.834 7.657 7.657 0 0 1 1.817 7.916l11.084 11.085c2.682-.924 5.776-.326 7.918 1.819a7.66 7.66 0 0 1 0 10.836 7.662 7.662 0 0 1-10.84 0 7.668 7.668 0 0 1-1.668-8.335L54.176 37.46l-.002 27.202c.75.37 1.434.86 2.027 1.449a7.664 7.664 0 1 1-8.328-1.672V36.983a7.57 7.57 0 0 1-2.508-1.672 7.66 7.66 0 0 1-1.651-8.377L32.377 15.595 2.439 45.531a6.442 6.442 0 0 0 0 9.11L46.101 98.3a6.44 6.44 0 0 0 9.108 0l43.457-43.457a6.444 6.444 0 0 0 0-9.111" fill="#DE4C36"/></svg>