<svg width="101" height="93" viewBox="0 0 101 93" fill="none" xmlns="http://www.w3.org/2000/svg"><path d="m50.38 92.356 18.414-56.669H31.967L50.38 92.356z" fill="#E24329"/><path d="M50.38 92.355 31.968 35.686H6.163l44.218 56.67z" fill="#FC6D26"/><path d="M6.163 35.687.567 52.907a3.812 3.812 0 0 0 1.385 4.262L50.38 92.356 6.162 35.686z" fill="#FCA326"/><path d="M6.163 35.687h25.804L20.878 1.555c-.57-1.756-3.055-1.756-3.626 0L6.162 35.687z" fill="#E24329"/><path d="m50.38 92.355 18.414-56.669h25.805L50.38 92.357z" fill="#FC6D26"/><path d="m94.599 35.687 5.595 17.221a3.809 3.809 0 0 1-1.385 4.262L50.381 92.356l44.218-56.67z" fill="#FCA326"/><path d="M94.599 35.687H68.794l11.09-34.132c.57-1.756 3.055-1.756 3.625 0l11.09 34.132z" fill="#E24329"/></svg>