<svg xmlns="http://www.w3.org/2000/svg" viewBox="0 0 36 36"><path d="M27.436 16.645c-.707 1.161-1.883 2.051-3.292 2.46l-.107.032c-.217.061-.44.1-.662.1-.976 0-1.528-.66-1.231-1.474.216-.595.785-1.097 1.479-1.33 1.075-.392 1.827-1.286 1.827-2.327 0-1.403-1.365-2.54-3.048-2.54s-3.047 1.137-3.047 2.54v7.788c0 1.873-1.086 3.516-2.71 4.445a6.126 6.126 0 0 1-3.047.804c-3.174 0-5.757-2.355-5.757-5.249 0-.921.264-1.786.723-2.54.71-1.165 1.894-2.058 3.311-2.465l.004-.001c.239-.075.487-.116.731-.116.98 0 1.535.663 1.237 1.48-.201.554-.744 1.03-1.377 1.284a3.489 3.489 0 0 0-.222.084c-1.005.415-1.698 1.276-1.698 2.274 0 1.403 1.365 2.54 3.048 2.54s3.047-1.137 3.047-2.54v-7.788c0-1.873 1.086-3.516 2.71-4.445a6.126 6.126 0 0 1 3.047-.804c3.174 0 5.757 2.355 5.757 5.249a4.86 4.86 0 0 1-.723 2.54M18 2C9.163 2 2 9.163 2 18s7.163 16 16 16 16-7.163 16-16S26.837 2 18 2" fill="#07C160" fill-rule="evenodd"/></svg>