<svg width="101" height="100" viewBox="0 0 101 100" fill="none" xmlns="http://www.w3.org/2000/svg"><path d="M92.32 77.136c-5.442-.137-9.658.415-13.195 1.934-1.02.414-2.653.414-2.789 1.726.544.552.612 1.45 1.088 2.209.817 1.38 2.245 3.245 3.537 4.212 1.428 1.104 2.857 2.209 4.353 3.175 2.652 1.657 5.645 2.624 8.23 4.28 1.496.966 2.992 2.21 4.488 3.245.748.552 1.224 1.45 2.177 1.795v-.207c-.477-.621-.613-1.519-1.088-2.21-.68-.69-1.36-1.311-2.041-2.001-1.972-2.692-4.42-5.04-7.073-6.973-2.176-1.519-6.938-3.59-7.822-6.145l-.136-.137c1.496-.138 3.265-.69 4.693-1.105 2.313-.622 4.42-.483 6.802-1.105 1.088-.276 2.176-.621 3.264-.966v-.621c-1.224-1.243-2.108-2.9-3.4-4.074-3.469-3.038-7.278-6.006-11.223-8.492-2.108-1.38-4.829-2.278-7.073-3.451-.816-.415-2.177-.622-2.652-1.312-1.225-1.519-1.905-3.52-2.79-5.316-1.971-3.798-3.876-8.009-5.576-12.013-1.224-2.692-1.972-5.385-3.469-7.87-7.005-11.736-14.623-18.847-26.32-25.82-2.517-1.45-5.51-2.072-8.706-2.83-1.7-.07-3.4-.208-5.101-.277-1.088-.484-2.177-1.795-3.129-2.417C13.493 1.885 3.494-3.5.638 3.611c-1.837 4.488 2.72 8.906 4.284 11.185 1.158 1.587 2.653 3.382 3.47 5.177.476 1.173.611 2.417 1.087 3.66 1.09 3.036 2.109 6.42 3.538 9.25.748 1.45 1.564 2.969 2.516 4.28.544.76 1.496 1.105 1.7 2.348-.951 1.38-1.02 3.452-1.565 5.178-2.448 7.801-1.495 17.467 1.973 23.196 1.088 1.726 3.673 5.524 7.142 4.074 3.06-1.243 2.38-5.178 3.264-8.63.204-.829.069-1.38.476-1.933v.139c.953 1.932 1.904 3.797 2.789 5.73 2.108 3.382 5.78 6.903 8.841 9.25 1.633 1.243 2.925 3.383 4.966 4.143v-.208h-.137c-.408-.621-1.02-.897-1.564-1.38-1.224-1.243-2.585-2.762-3.537-4.143-2.856-3.866-5.373-8.146-7.617-12.565-1.088-2.14-2.04-4.487-2.925-6.627-.408-.83-.408-2.071-1.088-2.485-1.02 1.518-2.516 2.83-3.265 4.694-1.291 2.969-1.428 6.628-1.904 10.424-.272.07-.136 0-.272.14-2.176-.554-2.924-2.831-3.74-4.765-2.041-4.901-2.382-12.772-.613-18.433.476-1.45 2.517-6.006 1.7-7.387-.407-1.312-1.768-2.071-2.516-3.107-.884-1.311-1.836-2.968-2.448-4.418-1.633-3.866-2.449-8.147-4.217-12.013-.816-1.795-2.244-3.659-3.4-5.316-1.293-1.863-2.721-3.176-3.741-5.385-.34-.759-.817-2.002-.273-2.83.136-.553.408-.76.953-.897.884-.76 3.4.206 4.284.62 2.517 1.035 4.625 2.003 6.734 3.452.952.69 1.972 2.003 3.196 2.348h1.428c2.177.483 4.625.138 6.666.76 3.605 1.172 6.869 2.899 9.794 4.763 8.91 5.73 16.254 13.877 21.22 23.61.816 1.588 1.156 3.039 1.904 4.695 1.429 3.383 3.197 6.835 4.625 10.15 1.428 3.244 2.788 6.558 4.829 9.25 1.02 1.45 5.1 2.21 6.937 2.97 1.36.62 3.469 1.173 4.693 1.932 2.312 1.45 4.625 3.107 6.801 4.694 1.089.829 4.489 2.555 4.693 3.936z" fill="#00546B"/><path d="M22.945 17.142c-1.155 0-1.971.139-2.788.346v.138h.137c.544 1.104 1.496 1.864 2.175 2.83.545 1.105 1.02 2.21 1.565 3.314l.136-.138c.953-.69 1.428-1.795 1.428-3.452-.408-.483-.476-.966-.816-1.45-.408-.69-1.292-1.035-1.837-1.588z" fill="#00546B"/></svg>