<svg width="100" height="90" viewBox="0 0 100 90" fill="none" xmlns="http://www.w3.org/2000/svg"><path fill-rule="evenodd" clip-rule="evenodd" d="m61.711 55.659-1.918 3.33a3.237 3.237 0 0 1-2.806 1.623H42.293a3.238 3.238 0 0 1-2.805-1.622l-1.919-3.331h24.142zm5.37-9.324-3.382 5.872H35.582L32.2 46.335h34.88zm-3.258-9.118 3.263 5.666H32.194l3.264-5.666h28.365zm-6.836-8.62c1.158 0 2.228.618 2.806 1.622l2.042 3.546h-24.39l2.043-3.546a3.238 3.238 0 0 1 2.805-1.622h14.694z" fill="#00435B"/><path d="M20.907 27.052c-1.627-7.893-1.977-13.947-.925-18.343.626-2.615 1.77-4.747 3.51-6.286C25.328.798 27.65 0 30.26 0c4.304 0 8.829 1.963 13.664 5.692 1.972 1.52 4.02 3.354 6.145 5.5.17-.218.36-.423.574-.613 6.01-5.356 11.07-8.684 15.398-9.967 2.574-.763 4.99-.836 7.19-.095 2.323.782 4.173 2.397 5.479 4.66 2.154 3.735 2.723 8.642 1.92 14.702-.328 2.47-.888 5.16-1.679 8.076.299.035.598.102.894.2 7.626 2.527 13.025 5.244 16.294 8.35 1.946 1.848 3.216 3.905 3.675 6.182.485 2.404.012 4.814-1.292 7.076-2.15 3.73-6.105 6.67-11.74 9-2.261.936-4.82 1.783-7.68 2.545.13.294.231.607.3.936 1.627 7.893 1.976 13.946.924 18.342-.626 2.615-1.77 4.748-3.51 6.286-1.836 1.625-4.158 2.422-6.767 2.422-4.304 0-8.83-1.963-13.665-5.691-1.993-1.537-4.063-3.394-6.213-5.57a4.588 4.588 0 0 1-.814.954c-6.01 5.356-11.07 8.684-15.398 9.967-2.574.763-4.99.836-7.19.095-2.322-.781-4.173-2.397-5.479-4.66-2.154-3.735-2.723-8.642-1.92-14.702.34-2.559.929-5.355 1.766-8.392a4.583 4.583 0 0 1-.98-.21C12.53 58.559 7.13 55.84 3.86 52.736 1.915 50.888.645 48.83.186 46.554c-.485-2.404-.012-4.815 1.292-7.076 2.15-3.73 6.105-6.67 11.74-9 2.329-.964 4.973-1.834 7.937-2.613a4.613 4.613 0 0 1-.248-.813z" fill="#002B3B"/><path fill-rule="evenodd" clip-rule="evenodd" d="M40.492 24.537a138.74 138.74 0 0 1 12.223-.417 1.439 1.439 0 0 0 1.13-2.346C44.294 10.016 36.43 4.137 30.252 4.137c-6.377 0-8.196 7.03-5.458 21.09.15.77.89 1.278 1.664 1.141 4.875-.864 9.553-1.474 14.033-1.83zm22.19 1.935a140.291 140.291 0 0 1 6.573 10.451 1.439 1.439 0 0 0 2.594-.2c5.402-14.17 6.537-23.942 3.406-29.316-3.232-5.546-10.272-3.628-21.123 5.753a1.439 1.439 0 0 0-.157 2.018c3.224 3.81 6.126 7.575 8.707 11.294zm9.581 19.796a140.43 140.43 0 0 1-5.761 10.826 1.439 1.439 0 0 0 1.474 2.15c14.887-2.448 23.877-6.355 26.969-11.721 3.194-5.542-1.942-10.621-15.408-15.238a1.439 1.439 0 0 0-1.819.87c-1.699 4.669-3.517 9.04-5.455 13.113zM60.048 64.852c-3.953.314-8.027.453-12.223.416a1.439 1.439 0 0 0-1.13 2.346c9.55 11.759 17.414 17.638 23.591 17.638 6.378 0 8.197-7.03 5.458-21.09a1.439 1.439 0 0 0-1.663-1.141c-4.876.864-9.553 1.474-14.033 1.83zm-22.73-1.756a140.291 140.291 0 0 1-6.573-10.45 1.439 1.439 0 0 0-2.594.2c-5.402 14.17-6.537 23.94-3.406 29.315 3.232 5.546 10.272 3.628 21.123-5.753a1.439 1.439 0 0 0 .157-2.017c-3.224-3.811-6.126-7.576-8.707-11.295zm-9.581-20.335a140.43 140.43 0 0 1 5.761-10.827 1.439 1.439 0 0 0-1.474-2.149C17.137 32.233 8.147 36.14 5.055 41.505c-3.194 5.542 1.942 10.622 15.408 15.239a1.439 1.439 0 0 0 1.819-.87c1.699-4.67 3.517-9.04 5.455-13.113z" fill="#FF4154"/><path fill-rule="evenodd" clip-rule="evenodd" d="M43.474 28.777H55.81c1.804 0 3.47.965 4.368 2.53l6.193 10.79a5.036 5.036 0 0 1 0 5.014l-6.193 10.791a5.036 5.036 0 0 1-4.368 2.53H43.474a5.036 5.036 0 0 1-4.367-2.53l-6.194-10.791a5.036 5.036 0 0 1 0-5.013l6.194-10.792a5.036 5.036 0 0 1 4.367-2.529zm10.455 3.257c1.805 0 3.471.966 4.369 2.532l4.319 7.534a5.036 5.036 0 0 1 0 5.009l-4.319 7.534a5.036 5.036 0 0 1-4.37 2.532h-8.574a5.036 5.036 0 0 1-4.369-2.532l-4.319-7.534a5.036 5.036 0 0 1 0-5.01l4.32-7.533a5.036 5.036 0 0 1 4.368-2.532h8.575zm-2.026 3.563H47.38a5.036 5.036 0 0 0-4.366 2.527l-2.282 3.971a5.036 5.036 0 0 0 0 5.018l2.282 3.972a5.036 5.036 0 0 0 4.366 2.527h4.523a5.036 5.036 0 0 0 4.366-2.527l2.282-3.972a5.037 5.037 0 0 0 0-5.018l-2.282-3.971a5.036 5.036 0 0 0-4.366-2.528zm-1.951 3.41c1.801 0 3.466.962 4.364 2.523l.324.562a5.036 5.036 0 0 1 0 5.025l-.324.562a5.036 5.036 0 0 1-4.364 2.523h-.62a5.036 5.036 0 0 1-4.365-2.523l-.324-.563a5.036 5.036 0 0 1 0-5.024l.324-.562a5.036 5.036 0 0 1 4.364-2.524h.62zm-.31 3.358a2.241 2.241 0 0 0-1.941 3.359 2.24 2.24 0 0 0 3.882-2.24 2.24 2.24 0 0 0-1.94-1.119zm-18.167 2.24h4.031-4.031z" fill="#FFD94C"/></svg>