<svg xmlns="http://www.w3.org/2000/svg" width="24" height="24" viewBox="0 0 24 24"><path d="M21.98 2.959c-.051-.106-.187-.119-.285-.119-.34 0-1.005.182-2.011.458l-.33.09c-1.527.416-2.99 1.595-3.615 2.098l-.024.02c.57-.778 2.078-3.179 1.952-3.457A.08.08 0 0 0 17.592 2c-.137 0-.29.158-.568.445-.396.409-1.058 1.093-2.252 1.915-.767.527-1.594 1.282-2.323 1.947-.937.854-1.821 1.661-2.24 1.661a.2.2 0 0 1-.177-.09c-.543-.794-1.1-1.22-1.659-1.27-.118-.01-.24-.02-.364-.02-.468 0-.997.134-1.695 1.113-.155.217-1.658.397-2.756.528-.583.07-1.086.13-1.354.187-.145.03-.21.047-.204.11.006.061.062.066.233.066.208 0 .58-.016 1.013-.035.66-.03 1.48-.066 2.175-.066.748 0 1.206.043 1.362.128.604.327 1.491 1.544 2.261 3.1.748 1.51 2.66 3.11 3.869 3.532.925.322 1.072 1.18 1.293 2.479.057.331.12.706.203 1.1.278 1.32.434 1.497.55 1.497.1 0 .164-.134.209-.434l.015-.12c.416 1.517.634 1.712.777 1.712.03 0 .058-.014.077-.04.086-.114 0-.49-.145-1.093-.076-.315-.177-.736-.163-.859.115.116.426.72.658 1.168.527 1.021.71 1.339.83 1.339a.073.073 0 0 0 .04-.011c.126-.08.006-.44-.344-1.374-.184-.492-.375-1-.396-1.22.107.083.37.437.567.702.408.55.598.792.704.792.024 0 .045-.01.06-.028.023-.029.028-.074.017-.147-.048-.3-.434-1.22-.843-2.194-.35-.835-.713-1.699-.799-2.04-.188-.748-1.287-3.582-1.619-4.277-.22-.461.592-.991 1.186-1.378.26-.17.486-.317.602-.438.188-.196.396-.293.616-.395.22-.102.446-.208.648-.418.27-.282.315-.52.36-.75a1.66 1.66 0 0 1 .088-.334c.06-.148.266-.234.484-.324.255-.107.544-.227.68-.483.096-.18.153-.393.209-.598.082-.304.16-.592.343-.646.35-.105.903-.469 1.007-.824l.018-.06c.101-.35.34-1.17.931-2.026.199-.287.26-.458.205-.57z" fill="#FCB334"/></svg>