<svg width="300" height="206" viewBox="0 0 300 206" fill="none" xmlns="http://www.w3.org/2000/svg">
  <g opacity="0.995">
    <path fill-rule="evenodd" clip-rule="evenodd"
      d="M198.377 0C232.252 0 266.125 0 300 0C291.51 31.5232 282.946 63.0448 274.309 94.5652C257.461 95.6939 240.524 96.0737 223.498 95.7045C205.212 96.0838 186.942 95.7039 168.69 94.5652C172.883 78.5982 177.07 62.6475 181.249 46.713C185.038 33.4915 188.655 20.1992 192.097 6.83609C193.65 3.96196 195.743 1.68337 198.377 0Z"
      fill="#73C9FF" />
    <path fill-rule="evenodd" clip-rule="evenodd"
      d="M150.918 46.2815C146.059 47.1612 141.105 47.7304 136.055 47.9895C134.419 48.5192 133.086 49.4681 132.053 50.8359C125.277 70.2354 119.56 89.9711 114.903 110.043C114.467 110.677 113.894 111.055 113.189 111.182C75.459 111.182 37.7295 111.182 0 111.182C0 108.904 0 106.628 0 104.351C8.39493 76.4576 16.5887 48.3721 24.5814 20.0937C26.3454 17.9551 28.4414 16.2472 30.8695 14.97C73.9395 14.0212 117.005 14.211 160.064 15.5393C157.002 25.8238 153.953 36.0713 150.918 46.2815Z"
      fill="#0027B4" />
    <path fill-rule="evenodd" clip-rule="evenodd"
      d="M150.67 46.9649C161.022 46.9649 171.373 46.9649 181.724 46.9649C177.514 62.8769 173.297 78.8054 169.073 94.75C187.46 95.8871 205.862 96.2664 224.281 95.8877C214.072 132.248 204.104 168.656 194.376 205.112C158.339 205.112 122.299 205.112 86.262 205.112C95.4286 174.149 104.248 143.051 112.715 111.816C113.425 111.69 114.001 111.311 114.44 110.678C119.125 90.6213 124.876 70.9005 131.693 51.5158C132.732 50.1489 134.073 49.2007 135.719 48.6715C140.799 48.4126 145.782 47.8437 150.67 46.9649Z"
      fill="#157DFE" />
  </g>
</svg>
