<svg width="300" height="300" viewBox="0 0 300 300" fill="none" xmlns="http://www.w3.org/2000/svg"><g opacity=".995" fill-rule="evenodd" clip-rule="evenodd"><path d="M198.377 47H300a22431.153 22431.153 0 0 1-25.691 94.565 573.674 573.674 0 0 1-50.811 1.14 660.027 660.027 0 0 1-54.808-1.14c4.193-15.967 8.38-31.918 12.559-47.852a1530.5 1530.5 0 0 0 10.848-39.877c1.553-2.874 3.646-5.153 6.28-6.836z" fill="#73C9FF"/><path d="M150.918 93.281a116.74 116.74 0 0 1-14.863 1.708 7.98 7.98 0 0 0-4.002 2.847 570.273 570.273 0 0 0-17.15 59.207c-.436.634-1.009 1.012-1.714 1.139H0v-6.831a5197.393 5197.393 0 0 0 24.581-84.257 20.374 20.374 0 0 1 6.288-5.124 2443.79 2443.79 0 0 1 129.195.57 73083.359 73083.359 0 0 0-9.146 30.741z" fill="#0027B4"/><path d="M150.67 93.965h31.054c-4.21 15.912-8.427 31.84-12.651 47.785a671.03 671.03 0 0 0 55.208 1.138 8736.928 8736.928 0 0 0-29.905 109.224H86.262a4194.948 4194.948 0 0 0 26.453-93.296c.71-.126 1.286-.505 1.725-1.138a566.81 566.81 0 0 1 17.253-59.162 8.02 8.02 0 0 1 4.026-2.845c5.08-.258 10.063-.827 14.951-1.706z" fill="#157DFE"/></g></svg>