<svg xmlns="http://www.w3.org/2000/svg" version="1.1"
  style="shape-rendering:geometricPrecision; text-rendering:geometricPrecision; image-rendering:optimizeQuality; fill-rule:evenodd; clip-rule:evenodd"
  xmlns:xlink="http://www.w3.org/1999/xlink">
  <g>
    <path style="opacity:0.954" fill="#2b9938"
      d="M 3.5,3.5 C 17.1667,3.5 30.8333,3.5 44.5,3.5C 44.5,17.1667 44.5,30.8333 44.5,44.5C 30.8333,44.5 17.1667,44.5 3.5,44.5C 3.5,30.8333 3.5,17.1667 3.5,3.5 Z M 13.5,14.5 C 14.5,14.5 15.5,14.5 16.5,14.5C 16.5,20.5 16.5,26.5 16.5,32.5C 21.5,32.5 26.5,32.5 31.5,32.5C 31.5,26.5 31.5,20.5 31.5,14.5C 32.5,14.5 33.5,14.5 34.5,14.5C 34.5,21.5 34.5,28.5 34.5,35.5C 27.5,35.5 20.5,35.5 13.5,35.5C 13.5,28.5 13.5,21.5 13.5,14.5 Z" />
  </g>
</svg>
