<svg width="100" height="100" viewBox="0 0 100 100" fill="none" xmlns="http://www.w3.org/2000/svg"><path d="M1.608 35.33s-2.435-1.755.487-4.1l6.81-6.089s1.948-2.05 4.009-.263l62.839 47.575v22.814s-.03 3.583-4.628 3.187L1.608 35.33z" fill="#2489CA"/><path d="M17.805 50.036 1.608 64.76s-1.664 1.238 0 3.45l7.52 6.84s1.786 1.919 4.425-.263l17.171-13.02-12.919-11.732z" fill="#1070B3"/><path d="m46.241 50.158 29.705-22.682-.193-22.692s-1.269-4.953-5.5-2.375l-39.53 35.976L46.24 50.158z" fill="#0877B9"/><path d="M71.125 98.484c1.725 1.766 3.816 1.188 3.816 1.188l23.148-11.407c2.964-2.02 2.548-4.526 2.548-4.526V15.622c0-2.994-3.065-4.029-3.065-4.029L77.508 1.922c-4.384-2.71-7.256.487-7.256.487s3.694-2.659 5.5 2.375V94.85c0 .62-.131 1.228-.395 1.776-.528 1.066-1.674 2.06-4.425 1.644l.193.213z" fill="#3C99D4"/></svg>