<svg width="100" height="101" viewBox="0 0 100 101" fill="none" xmlns="http://www.w3.org/2000/svg"><path d="M61.438.436v.539a11.466 11.466 0 0 1-22.932 0V.436H0v100h100v-100H61.438zM47.723 89.732l-4.868-24.094h-.084l-5.269 24.094h-6.709l-7.6-35.403h6.625l4.534 24.094h.084L39.9 54.33h6.197l4.907 24.392h.083l5.176-24.392h6.504l-8.446 35.403h-6.597zm36.48 0-2.257-7.88H70.024l-1.737 7.88H61.66l8.568-35.403h10.453l10.416 35.403h-6.894z" fill="#654FF0"/><path d="m74.215 63.054-2.89 12.99h8.995l-3.318-12.99h-2.787z" fill="#654FF0"/></svg>